<svg xmlns="http://www.w3.org/2000/svg" width="30" height="30" viewBox="0 0 30 30">
    <g fill="#FFF" fill-rule="evenodd">
        <path d="M17.786 22.093c-.45.468-1.103.751-1.958.85v1.39h-.931v-1.377a5.885 5.885 0 0 1-1.59-.335c-.5-.182-.896-.414-1.192-.695l.511-1.254c.28.248.62.457 1.022.627.401.17.817.275 1.249.316v-2.482a7.86 7.86 0 0 1-1.346-.465c-.359-.17-.66-.418-.902-.745s-.363-.76-.363-1.297c0-.67.223-1.241.67-1.713.446-.472 1.093-.753 1.94-.844v-1.402h.932v1.377c.424.025.838.104 1.243.236.405.133.759.306 1.061.521l-.465 1.254a4.455 4.455 0 0 0-1.84-.67v2.507c.546.14.998.294 1.357.46.36.165.663.41.909.738.246.326.369.759.369 1.297 0 .67-.226 1.239-.676 1.706zm-3.74-4.884c.196.166.48.306.85.422v-2.209c-.385.066-.673.199-.862.397-.19.199-.284.443-.284.732 0 .273.099.493.295.658zm2.673 3.997a.954.954 0 0 0 .29-.708.835.835 0 0 0-.307-.676c-.204-.17-.496-.313-.874-.428v2.196c.4-.066.698-.194.89-.384z"/>
        <path fill-rule="nonzero" d="M2.308 8h25.384c.956 0 1.731.784 1.731 1.75v17.5a1.74 1.74 0 0 1-1.73 1.75H2.307a1.74 1.74 0 0 1-1.731-1.75V9.75c0-.966.775-1.75 1.73-1.75zm0 1.167a.58.58 0 0 0-.577.583v17.5a.58.58 0 0 0 .577.583h25.384a.58.58 0 0 0 .577-.583V9.75a.58.58 0 0 0-.577-.583H2.308z"/>
        <path d="M2.308 5.667h25.384a.58.58 0 0 1 .577.583.58.58 0 0 1-.577.583H2.308a.58.58 0 0 1-.577-.583.58.58 0 0 1 .577-.583zM4.615 3.333h20.77a.58.58 0 0 1 .577.584.58.58 0 0 1-.577.583H4.615a.58.58 0 0 1-.577-.583.58.58 0 0 1 .577-.584zM6.923 1h16.154a.58.58 0 0 1 .577.583.58.58 0 0 1-.577.584H6.923a.58.58 0 0 1-.577-.584A.58.58 0 0 1 6.923 1z"/>
    </g>
</svg>
