<svg xmlns="http://www.w3.org/2000/svg" width="30" height="30" viewBox="0 0 30 30">
    <g fill="#FFF" fill-rule="evenodd">
        <path d="M22 22h4v1h-4v4h-1v-4h-4v-1h4v-4h1v4z"/>
        <path fill-rule="nonzero" d="M5.222 4C4.547 4 4 4.547 4 5.222v5.556C4 11.453 4.547 12 5.222 12h5.556c.675 0 1.222-.547 1.222-1.222V5.222C12 4.547 11.453 4 10.778 4H5.222zm0-1h5.556C12.005 3 13 3.995 13 5.222v5.556A2.222 2.222 0 0 1 10.778 13H5.222A2.222 2.222 0 0 1 3 10.778V5.222C3 3.995 3.995 3 5.222 3zM5.222 18C4.547 18 4 18.547 4 19.222v5.556C4 25.453 4.547 26 5.222 26h5.556c.675 0 1.222-.547 1.222-1.222v-5.556c0-.675-.547-1.222-1.222-1.222H5.222zm0-1h5.556c1.227 0 2.222.995 2.222 2.222v5.556A2.222 2.222 0 0 1 10.778 27H5.222A2.222 2.222 0 0 1 3 24.778v-5.556C3 17.995 3.995 17 5.222 17zM19.222 4C18.547 4 18 4.547 18 5.222v5.556c0 .675.547 1.222 1.222 1.222h5.556c.675 0 1.222-.547 1.222-1.222V5.222C26 4.547 25.453 4 24.778 4h-5.556zm0-1h5.556C26.005 3 27 3.995 27 5.222v5.556A2.222 2.222 0 0 1 24.778 13h-5.556A2.222 2.222 0 0 1 17 10.778V5.222C17 3.995 17.995 3 19.222 3z"/>
    </g>
</svg>
