<svg xmlns="http://www.w3.org/2000/svg" width="478" height="73" viewBox="0 0 478 73">
    <g fill="#FFF" fill-rule="evenodd">
        <path d="M51.746 44.78L38.573 14.022 25.495 44.78h26.251zm4.293 10.248H21.103l-6.888 16.283H.841L32.281.953H45.06l31.544 70.358H63.028L56.04 55.028zM116.714 39.265H131.1c5.443 0 9.606-1.173 12.376-3.492 2.764-2.306 4.107-5.51 4.107-9.792 0-4.277-1.343-7.464-4.103-9.744-2.77-2.277-6.937-3.433-12.38-3.433h-14.386v26.46zm14.386 1.58h-15.956V11.224H131.1c5.816 0 10.316 1.275 13.374 3.792 3.105 2.562 4.68 6.25 4.68 10.966 0 4.715-1.575 8.419-4.676 11.009-3.058 2.56-7.558 3.856-13.378 3.856zm18.004 29.676h12.03l-15.781-22.7.935-.363c4.614-1.808 8.203-4.583 10.663-8.252 2.46-3.666 3.706-8.119 3.706-13.225 0-4.983-1.165-9.335-3.468-12.941-2.302-3.605-5.662-6.415-9.989-8.35-4.37-1.955-9.585-2.946-15.502-2.946H103.74V70.52h11.404V47.333h.786c.724 0 17.766.01 18.46.023l.426.006 14.288 23.159zm15.045 1.581h-15.918l-14.293-23.169c-2.43-.008-14.075-.014-17.224-.018v23.187H102.17V.162h29.529c6.138 0 11.57 1.038 16.142 3.084 4.607 2.06 8.201 5.07 10.671 8.937 2.467 3.865 3.718 8.509 3.718 13.798 0 5.427-1.338 10.177-3.978 14.11-2.475 3.692-5.994 6.534-10.473 8.461l16.371 23.55z"/>
        <path d="M130.346 39.265h13.93c5.444 0 9.607-1.173 12.377-3.492 2.767-2.306 4.107-5.51 4.107-9.792 0-4.277-1.34-7.464-4.1-9.741-2.773-2.28-6.94-3.436-12.383-3.436h-13.93v26.46zm13.93 1.58h-15.5V11.224h15.5c5.817 0 10.317 1.273 13.375 3.79v.002c3.105 2.562 4.68 6.25 4.68 10.966 0 4.715-1.573 8.419-4.674 11.009-3.058 2.56-7.56 3.856-13.38 3.856zm18.44 29.676h12.053l-15.782-22.7.933-.363c4.612-1.808 8.202-4.585 10.662-8.252 2.46-3.666 3.707-8.119 3.707-13.225 0-4.981-1.167-9.335-3.467-12.941-2.305-3.607-5.667-6.415-9.991-8.35-4.37-1.955-9.584-2.946-15.501-2.946h-28.616V70.52h12.062V47.38h.786s8.293-.004 17.011.021l.412.002 15.73 23.117zm15.068 1.581h-15.898l-15.729-23.119c-6.974-.02-13.599-.02-15.81-.02v23.14h-15.203V.162h30.186c6.138 0 11.567 1.037 16.14 3.083 4.61 2.06 8.2 5.069 10.674 8.937 2.468 3.867 3.716 8.509 3.716 13.798 0 5.427-1.34 10.177-3.98 14.11-2.472 3.692-5.993 6.534-10.47 8.461l16.374 23.55zM200.296 71.31h12.976V.952h-12.976zM312.987.953L282.54 71.31h-12.773L239.222.953h14.071l23.262 54.275L300.01.953zM376.67 44.78l-13.173-30.758L350.42 44.78h26.251zm4.291 10.248h-34.936l-6.886 16.283h-13.373L357.206.953h12.778l31.543 70.358H387.95l-6.989-16.283zM427.877.953h12.975v59.306h36.536v11.052h-49.51z"/>
    </g>
</svg>
