<svg xmlns="http://www.w3.org/2000/svg" width="17" height="20" viewBox="0 0 17 20">
    <path fill-rule="nonzero" d="M15.21 12.795V8.5c0-2.75-2.035-5.227-4.696-6.09v-.365C10.514.91 9.619 0 8.5 0 7.383 0 6.488.91 6.488 2.045v.364C3.827 3.273 1.791 5.75 1.791 8.5v4.295A2.397 2.397 0 0 0 .07 15.682 2.353 2.353 0 0 0 2.35 17.5h3.31C5.975 18.886 7.16 20 8.502 20s2.527-1.114 2.84-2.5h3.31C15.95 17.5 17 16.432 17 15.114c0-1.091-.738-2.069-1.79-2.319zM8.502 1.386c.38 0 .67.296.67.682H7.83c0-.386.29-.682.671-.682zM3.133 8.5c0-2.682 2.505-5.068 5.368-5.068 2.863 0 5.368 2.386 5.368 5.068v4.227H3.133V8.5zm5.368 10.136c-.626 0-1.185-.5-1.431-1.136h2.862c-.246.636-.805 1.136-1.431 1.136zm6.15-2.5h-12.3a1.01 1.01 0 0 1-1.007-1.022A1.01 1.01 0 0 1 2.35 14.09h12.302c.559 0 1.006.454 1.006 1.023a1.01 1.01 0 0 1-1.006 1.022z"/>
</svg>
