<svg xmlns="http://www.w3.org/2000/svg" width="16" height="16" viewBox="0 0 16 16">
    <g fill="#BFBFBF" fill-rule="nonzero">
        <path d="M3.406 15.21c.019.43.375.77.809.77h7.55c.434 0 .79-.34.808-.77l.54-11.319H2.866l.54 11.318zm6.292-8.508c0-.18.147-.326.328-.326h.526c.181 0 .328.146.328.326v6.467c0 .18-.147.326-.328.326h-.526a.328.328 0 0 1-.328-.326V6.702zm-2.3 0c0-.18.148-.326.33-.326h.525c.18 0 .328.146.328.326v6.467c0 .18-.147.326-.328.326h-.526a.328.328 0 0 1-.328-.326V6.702zm-2.299 0c0-.18.147-.326.329-.326h.525c.182 0 .329.146.329.326v6.467c0 .18-.147.326-.329.326h-.525a.328.328 0 0 1-.329-.326V6.702zM13.471.823H9.988V.168A.169.169 0 0 0 9.818 0H6.162a.169.169 0 0 0-.17.168v.655H2.509a.506.506 0 0 0-.507.505v1.585h11.978V1.328a.506.506 0 0 0-.508-.505z"/>
    </g>
</svg>
