<svg xmlns="http://www.w3.org/2000/svg" width="30" height="30" viewBox="0 0 30 30">
    <g fill="#FFF" fill-rule="nonzero">
        <path d="M27.446 9.917H27.1l-4.285-7.625a2.472 2.472 0 0 0-2.23-1.271 2.423 2.423 0 0 0-1.157.341L1.238 12.151A2.556 2.556 0 0 0 0 14.365c.002.426.11.857.33 1.251l3.413 6.072v4.75c0 1.402 1.119 2.542 2.495 2.542h21.208c1.377 0 2.496-1.14 2.496-2.541v-13.98c0-1.402-1.12-2.542-2.496-2.542zM3.743 19.129l-.477-.848.477-.283v1.13zm0-2.601l-1.097.65-.615-1.096 1.712-1.015v1.46zm0-4.07v1.138l-2.331 1.382a1.29 1.29 0 0 1 .453-1.73l1.912-1.133c-.015.113-.034.226-.034.343zm21.919-2.541h-8.294l6.22-3.69 2.074 3.69zm-2.693-4.793l-8.08 4.793h-2.463l9.927-5.888.616 1.095zM20.056 2.46c.283-.167.612-.214.927-.127.318.087.584.297.749.59l.001.003-11.787 6.99H7.484L20.056 2.46zm8.638 23.979c0 .7-.56 1.27-1.248 1.27H6.238c-.688 0-1.248-.57-1.248-1.27v-13.98c0-.701.56-1.272 1.248-1.272h21.208c.688 0 1.248.57 1.248 1.271v13.98z"/>
        <path d="M23.626 20.084c-.41 0-.807.097-1.17.283a2.55 2.55 0 0 0-1.17-.283c-1.418 0-2.573 1.14-2.573 2.542s1.155 2.542 2.574 2.542c.409 0 .807-.097 1.17-.283.362.186.76.283 1.169.283 1.418 0 2.573-1.14 2.573-2.542s-1.154-2.542-2.573-2.542zm0 3.813c-.288 0-.566-.093-.804-.269a.615.615 0 0 0-.732 0 1.346 1.346 0 0 1-.803.269c-.731 0-1.326-.57-1.326-1.271 0-.7.595-1.271 1.326-1.271.288 0 .565.093.803.269a.614.614 0 0 0 .732 0c.238-.176.516-.27.804-.27.73 0 1.325.571 1.325 1.272 0 .7-.594 1.27-1.325 1.27zM8.11 21.355h6.237a.63.63 0 0 0 .624-.636.63.63 0 0 0-.624-.635H8.109a.63.63 0 0 0-.624.635.63.63 0 0 0 .624.636zM16.842 23.897H8.11a.63.63 0 0 0-.624.635.63.63 0 0 0 .624.636h8.733a.63.63 0 0 0 .624-.636.63.63 0 0 0-.624-.635z"/>
    </g>
</svg>
