<svg xmlns="http://www.w3.org/2000/svg" width="36" height="36" viewBox="0 0 36 36">
    <g fill="#FFF" fill-rule="nonzero">
        <path d="M8 14.4A6.4 6.4 0 1 0 8 1.6a6.4 6.4 0 0 0 0 12.8zM8 16A8 8 0 1 1 8 0a8 8 0 0 1 0 16zM28.828 32c.525 0 1.035-.108 1.516-.32a.248.248 0 0 0 .13-.34l-.445-.877a.282.282 0 0 0-.364-.122 2.059 2.059 0 0 1-.837.178c-1.01 0-1.885-.732-2.175-1.779h2.323c.151 0 .274-.114.274-.255v-.97c0-.141-.123-.256-.274-.256h-2.323c.29-1.046 1.165-1.778 2.175-1.778.288 0 .57.06.838.178.136.06.3.006.364-.122l.443-.877a.248.248 0 0 0-.13-.34 3.73 3.73 0 0 0-1.515-.32c-1.861 0-3.454 1.386-3.794 3.26h-.26c-.152 0-.274.114-.274.255v.97c0 .141.122.255.273.255h.261c.34 1.874 1.933 3.26 3.794 3.26z"/>
        <path d="M28 34.4a6.4 6.4 0 1 0 0-12.8 6.4 6.4 0 0 0 0 12.8zm0 1.6a8 8 0 1 1 0-16 8 8 0 0 1 0 16zM11 10.312V12H5v-1.103c.698-.3 1.474-1.075 1.474-2 0-.192-.013-.355-.04-.545h-1.29V6.949h1.053a6.1 6.1 0 0 1-.105-1.102C6.092 4.13 7.302 3 9.064 3c.724 0 1.264.163 1.553.327l-.329 1.566c-.249-.15-.618-.245-1.104-.245-.935 0-1.223.626-1.223 1.28 0 .355.039.682.117 1.022h1.804v1.402H8.25c.013.341-.013.653-.119.967a2.34 2.34 0 0 1-.644.967v.027H11v-.001zM29.946 12.968a9.683 9.683 0 0 0-4.43-4.18 9.594 9.594 0 0 0-1.855-.638l-.459-.107.75-.585a.45.45 0 0 0 .08-.632l-.505-.652a.445.445 0 0 0-.628-.08L20.173 8.22a.452.452 0 0 0-.08.632l2.116 2.739a.445.445 0 0 0 .628.08l.65-.507a.452.452 0 0 0 .079-.631l-.621-.805.652.183c.407.114.811.264 1.2.444a7.824 7.824 0 0 1 3.625 3.41.447.447 0 0 0 .594.188l.736-.368a.452.452 0 0 0 .194-.617zM12.79 24.409a.445.445 0 0 0-.628-.08l-.649.507a.448.448 0 0 0-.08.631l.622.805-.652-.183a7.998 7.998 0 0 1-1.2-.444 7.824 7.824 0 0 1-3.625-3.41.448.448 0 0 0-.594-.188l-.736.368a.452.452 0 0 0-.194.617 9.684 9.684 0 0 0 4.43 4.18c.592.275 1.216.49 1.854.639l.46.107-.75.584a.449.449 0 0 0-.08.632l.505.652a.444.444 0 0 0 .628.08l2.726-2.126a.452.452 0 0 0 .08-.632l-2.116-2.739z"/>
    </g>
</svg>
