<svg xmlns="http://www.w3.org/2000/svg" width="36" height="36" viewBox="0 0 36 36">
    <g fill="#FFF" fill-rule="nonzero">
        <path d="M8 14.4A6.4 6.4 0 1 0 8 1.6a6.4 6.4 0 0 0 0 12.8zM8 16A8 8 0 1 1 8 0a8 8 0 0 1 0 16zM28 34.4a6.4 6.4 0 1 0 0-12.8 6.4 6.4 0 0 0 0 12.8zm0 1.6a8 8 0 1 1 0-16 8 8 0 0 1 0 16z"/>
        <path d="M28.29 27.362c-1.032-.31-1.227-.447-1.227-.866 0-.41.681-.52 1.084-.52.388 0 .849.122 1.122.297a.26.26 0 0 0 .357-.076l.534-.819a.255.255 0 0 0-.077-.355 3.501 3.501 0 0 0-1.187-.458v-.809a.258.258 0 0 0-.258-.256h-.983a.26.26 0 0 0-.259.256v.804c-1.121.223-1.833.965-1.833 1.936 0 1.601 1.38 2.015 2.292 2.29 1.005.301 1.147.432 1.145.759 0 .082-.02.18-.162.278-.186.127-.503.2-.87.2h-.005c-.477 0-1.012-.212-1.303-.516a.26.26 0 0 0-.365-.01l-.714.67a.255.255 0 0 0-.01.362c.451.473 1.12.812 1.825.933v.782c0 .141.116.256.259.256h.983a.258.258 0 0 0 .259-.256v-.845c.3-.079.567-.197.794-.353.522-.358.809-.89.809-1.495.013-1.521-1.325-1.923-2.21-2.189zM11 10.312V12H5v-1.103c.698-.3 1.474-1.075 1.474-2 0-.192-.013-.355-.04-.545h-1.29V6.949h1.053a6.1 6.1 0 0 1-.105-1.102C6.092 4.13 7.302 3 9.064 3c.724 0 1.264.163 1.553.327l-.329 1.566c-.249-.15-.618-.245-1.104-.245-.935 0-1.223.626-1.223 1.28 0 .355.039.682.117 1.022h1.804v1.402H8.25c.013.341-.013.653-.119.967a2.34 2.34 0 0 1-.644.967v.027H11v-.001zM29.946 12.968a9.683 9.683 0 0 0-4.43-4.18 9.594 9.594 0 0 0-1.855-.638l-.459-.107.75-.585a.45.45 0 0 0 .08-.632l-.505-.652a.445.445 0 0 0-.628-.08L20.173 8.22a.452.452 0 0 0-.08.632l2.116 2.739a.445.445 0 0 0 .628.08l.65-.507a.452.452 0 0 0 .079-.631l-.621-.805.652.183c.407.114.811.264 1.2.444a7.824 7.824 0 0 1 3.625 3.41.447.447 0 0 0 .594.188l.736-.368a.452.452 0 0 0 .194-.617zM12.79 24.409a.445.445 0 0 0-.628-.08l-.649.507a.448.448 0 0 0-.08.631l.622.805-.652-.183a7.998 7.998 0 0 1-1.2-.444 7.824 7.824 0 0 1-3.625-3.41.448.448 0 0 0-.594-.188l-.736.368a.452.452 0 0 0-.194.617 9.684 9.684 0 0 0 4.43 4.18c.592.275 1.216.49 1.854.639l.46.107-.75.584a.449.449 0 0 0-.08.632l.505.652a.444.444 0 0 0 .628.08l2.726-2.126a.452.452 0 0 0 .08-.632l-2.116-2.739z"/>
    </g>
</svg>
