<svg xmlns="http://www.w3.org/2000/svg" width="34" height="29" viewBox="0 0 34 29">
    <g fill="#BFBFBF" fill-rule="evenodd">
        <path d="M4.163 0v1.381H6.94V0h18.274c1.4 0 2.542 1.146 2.542 2.551v15.674c0 1.405-1.142 2.551-2.536 2.545H8.273l-3.211 3.732a1.02 1.02 0 0 1-1.794-.666v-3.06h-.726A2.551 2.551 0 0 1 0 18.225V2.55A2.551 2.551 0 0 1 2.542 0h1.621zm16.653 19.39h4.408c.622.002 1.143-.52 1.143-1.165V2.55c0-.645-.523-1.17-1.154-1.17H2.543c-.632 0-1.155.525-1.155 1.17v15.674c0 .645.523 1.17 1.154 1.17h2.113v3.456l2.98-3.462H18.04v1.325h2.775V19.39z"/>
        <path fill-rule="nonzero" d="M32.64 10.357H34V22.16c0 1.448-1.127 2.63-2.509 2.63h-.716v3.151c0 .448-.255.832-.655.99a.965.965 0 0 1-.355.069.974.974 0 0 1-.755-.366L25.836 24.8H11.785c-.378 0-.683-.32-.683-.716 0-.395.305-.715.683-.715h14.361c.2 0 .389.087.517.244l2.753 3.333V24.08c0-.396.305-.716.682-.716h1.393c.633 0 1.15-.54 1.15-1.204V10.357zm0-2.762V6.081c0-.663-.516-1.204-1.149-1.204-.377 0-.682-.32-.682-.715 0-.39.305-.71.682-.71 1.382 0 2.509 1.181 2.509 2.63v1.513h-1.36z"/>
        <path d="M13.343 10.762c.198-.32.486-.668.865-1.045a5.13 5.13 0 0 0 .648-.749c.141-.21.212-.451.212-.72 0-.378-.138-.684-.412-.918-.274-.233-.641-.35-1.101-.35-.872 0-1.53.346-1.973 1.038l-1.174-.85c.347-.53.795-.936 1.344-1.22.548-.283 1.194-.424 1.936-.424.904 0 1.624.218 2.16.654.537.436.805 1.036.805 1.8a2.656 2.656 0 0 1-.557 1.678 8.267 8.267 0 0 1-.605.667 5.024 5.024 0 0 0-.684.81 1.52 1.52 0 0 0-.223.835h-1.537c0-.485.098-.887.296-1.206zm-.218 4.125a1.08 1.08 0 0 1-.272-.748c0-.297.09-.544.272-.742a.903.903 0 0 1 .696-.296.89.89 0 0 1 .684.296c.181.198.272.445.272.742 0 .296-.09.546-.272.748a.88.88 0 0 1-.684.303.893.893 0 0 1-.696-.303z"/>
    </g>
</svg>
