<svg xmlns="http://www.w3.org/2000/svg" width="20" height="20" viewBox="0 0 20 20">
    <path fill="#FFF" fill-rule="nonzero" d="M12.5 10.932v3.982c0 .916-.738 1.659-1.668 1.659h-7.72c-.14 0-.256-.001-.353-.003-.713-.015-.853.065-1.4.56-.045.042-.107.088-.162.138L0 18.333V8.313c0-.917.781-1.646 1.711-1.646h5.74v2.37c0 1.067.92 1.895 1.668 1.895H12.5zm-4.167-8.57c0-.852.689-1.529 1.557-1.529h8.513C19.271.833 20 1.51 20 2.361V11.667l-1.117-.99c-.052-.046-.11-.089-.152-.127-.51-.46-.64-.534-1.306-.52l-.33.002H9.89c-.868 0-1.557-.69-1.557-1.54v-6.13z"/>
</svg>
