<svg xmlns="http://www.w3.org/2000/svg" width="20" height="20" viewBox="0 0 20 20">
    <g fill="#1F0B31" fill-rule="evenodd">
        <path fill-rule="nonzero" d="M1 1v18h18V1H1zm1-1h16a2 2 0 0 1 2 2v16a2 2 0 0 1-2 2H2a2 2 0 0 1-2-2V2a2 2 0 0 1 2-2z"/>
        <path d="M9.527 13.635a1.106 1.106 0 0 1-1.643 0l-2.544-2.73a1.311 1.311 0 0 1 0-1.762 1.106 1.106 0 0 1 1.642 0l1.516 1.626a.28.28 0 0 0 .415 0l4.105-4.404a1.106 1.106 0 0 1 1.642 0c.218.233.34.55.34.88 0 .331-.122.648-.34.882l-5.133 5.508z"/>
    </g>
</svg>
