<svg xmlns="http://www.w3.org/2000/svg" width="20" height="20" viewBox="0 0 20 20">
    <g fill="#1F0B31" fill-rule="evenodd">
        <path d="M2 0h16a2 2 0 0 1 2 2v16a2 2 0 0 1-2 2H2a2 2 0 0 1-2-2V2a2 2 0 0 1 2-2zm7.432 14.59l6.16-6.197a1.406 1.406 0 0 0 0-1.983 1.388 1.388 0 0 0-1.97 0l-4.926 4.956a.351.351 0 0 1-.498 0l-1.82-1.83a1.388 1.388 0 0 0-1.97 0 1.408 1.408 0 0 0 0 1.982l3.053 3.072a1.388 1.388 0 0 0 1.97 0z"/>
        <path d="M2 0h16a2 2 0 0 1 2 2v16a2 2 0 0 1-2 2H2a2 2 0 0 1-2-2V2a2 2 0 0 1 2-2zm7.527 13.635l5.133-5.508c.218-.234.34-.55.34-.881 0-.33-.122-.648-.34-.881a1.106 1.106 0 0 0-1.642 0l-4.105 4.404a.28.28 0 0 1-.415 0L6.982 9.143a1.106 1.106 0 0 0-1.642 0 1.311 1.311 0 0 0 0 1.762l2.544 2.73a1.106 1.106 0 0 0 1.643 0z"/>
    </g>
</svg>
