<svg xmlns="http://www.w3.org/2000/svg" width="16" height="16" viewBox="0 0 16 16">
    <path fill-rule="nonzero" d="M14.4 0H1.6C.733 0 0 .736 0 1.607v10.84c0 .87.733 1.607 1.6 1.607h6.615l3.588 1.858a.267.267 0 0 0 .464-.18v-1.678H14.4c.867 0 1.6-.736 1.6-1.608V1.607C16 .737 15.267 0 14.4 0zM3.227 4.482H7.64c.163 0 .294.224.294.5s-.131.5-.294.5H3.227c-.162 0-.294-.224-.294-.5s.132-.5.294-.5zm9.429 5.286H3.21c-.153 0-.278-.224-.278-.5s.125-.5.278-.5h9.445c.153 0 .277.224.277.5s-.124.5-.277.5zm0-2.143H3.21c-.153 0-.278-.224-.278-.5s.125-.5.278-.5h9.445c.153 0 .277.224.277.5s-.124.5-.277.5z"/>
</svg>
