<svg xmlns="http://www.w3.org/2000/svg" width="20" height="20" viewBox="0 0 20 20">
    <g fill-rule="evenodd">
        <path fill-rule="nonzero" d="M17.656 1.563h-.937V0h-1.563v1.563H4.844V0H3.28v1.563h-.937A2.346 2.346 0 0 0 0 3.905v13.75A2.346 2.346 0 0 0 2.344 20h15.312A2.346 2.346 0 0 0 20 17.656V3.906a2.346 2.346 0 0 0-2.344-2.344zm.782 16.093c0 .431-.351.782-.782.782H2.344a.782.782 0 0 1-.781-.782V7.344h16.875v10.312zm0-11.875H1.563V3.906c0-.43.35-.781.78-.781h.938v1.563h1.563V3.125h10.312v1.563h1.563V3.125h.937c.431 0 .782.35.782.781v1.875z"/>
        <path d="M4 10h2v2H4v-2zm5 0h2v2H9v-2zm5 0h2v2h-2v-2zM4 14h2v2H4v-2zm5 0h2v2H9v-2zm5 0h2v2h-2v-2z"/>
    </g>
</svg>
