<svg xmlns="http://www.w3.org/2000/svg" width="120" height="85" viewBox="0 0 120 85">
    <defs>
        <linearGradient id="a" x1="50%" x2="37.063%" y1="89.245%" y2="15.287%">
            <stop offset="0%" stop-color="#F3E3FF" stop-opacity="0"/>
            <stop offset="100%" stop-color="#F3E3FF"/>
        </linearGradient>
    </defs>
    <g fill="none" fill-rule="evenodd" transform="translate(-2)">
        <path fill="url(#a)" d="M1.12 68.523C7.524 47.694 14.914 37.28 23.288 37.28c12.56 0 16.443 15.558 31.904 15.558 15.462 0 17.283-35.392 35.055-35.392 17.771 0 19.74-15.792 31.775-15.792v82.643H2.283L1.118 68.523z" opacity=".53" style="mix-blend-mode:multiply"/>
        <path fill="#8F00FF" fill-rule="nonzero" d="M2.075 68.817l-1.912-.588c6.527-21.222 14.14-31.95 23.126-31.95 4.912 0 8.39 1.864 13.61 6.363a720.83 720.83 0 0 1 1.91 1.662c6.257 5.44 10.182 7.534 16.384 7.534 5.48 0 8.928-4.028 14.699-15.09l1.075-2.068c3.26-6.255 5.194-9.475 7.729-12.364 3.372-3.842 7.103-5.87 11.552-5.87 7.227 0 11.636-2.273 17.355-7.626.309-.289 2.194-2.083 2.74-2.588 4.21-3.893 7.308-5.578 11.68-5.578v2c-3.757 0-6.447 1.463-10.322 5.047-.533.493-2.413 2.281-2.73 2.579-6.056 5.668-10.902 8.166-18.723 8.166-3.813 0-7.029 1.747-10.049 5.19-2.394 2.728-4.272 5.853-7.458 11.968l-1.076 2.068c-2.905 5.57-4.655 8.498-6.833 11.043-2.874 3.358-5.983 5.123-9.639 5.123-6.803 0-11.108-2.296-17.696-8.024.07.06-1.477-1.29-1.903-1.657-4.889-4.212-7.995-5.877-12.305-5.877-7.76 0-14.929 10.101-21.214 30.537z"/>
        <circle cx="23" cy="37" r="3" fill="#8F00FF"/>
        <circle cx="85" cy="18" r="3" fill="#8F00FF"/>
    </g>
</svg>
