<svg xmlns="http://www.w3.org/2000/svg" width="16" height="20" viewBox="0 0 16 20">
    <g fill-rule="nonzero">
        <path d="M13.47 11.572c-2.295-.753-3.248-1.688-3.248-1.688l-.077.073c-.681.644-1.435 1.022-2.121 1.022h-.065c-.686 0-1.44-.378-2.12-1.022l-.078-.073s-.953.935-3.247 1.688C-.872 12.842.144 18.01.144 18.05c.106.576.168.774.222.796 3.401 1.52 11.85 1.52 15.25 0 .055-.022.117-.22.224-.796-.001-.04 1.03-5.189-2.37-6.48z"/>
        <path d="M11.548 4.977l-.028-.03c-.191-.176-.176-.166-.176-.166s.332-1.684.066-2.48C10.99 1.03 8.492.177 7.99.078c0 0-.305-.062-.324-.062 0 0-.394-.08-.851.12C6.518.25 4.962.959 4.52 2.3c-.267.796.066 2.48.066 2.48s.014-.01-.176.165l-.029.031c-.128.147-.097.607.044 1.085.128.48.294.608.334.72.404 1.906 1.81 3.533 3.242 3.533 1.433 0 2.764-1.627 3.168-3.532.04-.113.206-.241.334-.72.14-.48.176-.97.044-1.086z"/>
    </g>
</svg>
