<svg xmlns="http://www.w3.org/2000/svg" xmlns:xlink="http://www.w3.org/1999/xlink" width="198" height="198" viewBox="0 0 198 198">
    <defs>
        <path id="a" d="M0 .145h197.857v197.581H0z"/>
    </defs>
    <g fill="none" fill-rule="evenodd">
        <g transform="translate(0 .128)">
            <mask id="b" fill="#fff">
                <use xlink:href="#a"/>
            </mask>
            <path fill="#FFF" d="M191.348 191.23h-92.42c-50.96 0-92.419-41.404-92.419-92.292C6.51 48.045 47.97 6.64 98.928 6.64c50.96 0 92.42 41.405 92.42 92.298v92.293zM98.928.146C44.29.145 0 44.375 0 98.935c0 54.562 44.291 98.791 98.928 98.791h95.547a3.38 3.38 0 0 0 3.382-3.375V98.935c0-54.56-44.293-98.79-98.93-98.79z" mask="url(#b)"/>
        </g>
        <path fill="#FFF" d="M98.928 125.97c-14.88 0-26.942-12.046-26.942-26.905 0-14.861 12.062-26.907 26.942-26.907 14.882 0 26.944 12.046 26.944 26.907 0 14.86-12.062 26.905-26.944 26.905m67.827 22.327l-5.694 5.686-16.518-16.493a6.525 6.525 0 0 1-1.914-4.618v-32.189c0-23.166-17.388-43.516-40.529-45.147-26.634-1.875-48.64 20.1-46.76 46.695 1.635 23.11 21.997 40.473 45.195 40.473h29.643c4.376 0 6.003.689 7.23 1.913l16.516 16.494-5.812 5.806c-.936.932-.274 2.528 1.049 2.528h18.646c.82 0 1.484-.664 1.484-1.48v-18.62c0-1.32-1.6-1.982-2.536-1.048"/>
    </g>
</svg>
