<svg xmlns="http://www.w3.org/2000/svg" width="40" height="40" viewBox="0 0 40 40">
    <g fill="#D9D9D9" fill-rule="evenodd">
        <path fill-rule="nonzero" d="M39.636 21.833l-.005-.008-4.345-5.31a1.022 1.022 0 0 0-.162-.156 1.02 1.02 0 0 0-.777-.359H5.653a1.02 1.02 0 0 0-.777.359 1.02 1.02 0 0 0-.163.157L.37 21.826l-.005.007a.987.987 0 0 0-.364.76V39c0 .552.456 1 1.019 1h37.962A1.01 1.01 0 0 0 40 39V22.593a.987.987 0 0 0-.364-.76zm-4.27-2.025l1.461 1.785h-1.46v-1.785zM33.33 18v3.593h-7.63c-.218 0-.43.068-.605.195l-5.093 3.68-5.095-3.68a1.035 1.035 0 0 0-.604-.195h-7.63V18h26.657zM4.634 21.593H3.173l1.46-1.785v1.785zM37.962 38H2.038V23.593h11.93l5.428 3.922c.36.259.85.26 1.209 0l5.428-3.922h11.93V38z"/>
        <path d="M36 0h2v2h-2V0zm0 4h2v2h-2V4zm2-2h2v2h-2V2zm-4 0h2v2h-2V2zM21 6h2v2h-2V6zm0 4h2v2h-2v-2zm2-2h2v2h-2V8zm-4 0h2v2h-2V8z"/>
    </g>
</svg>
