<svg xmlns="http://www.w3.org/2000/svg" width="20" height="20" viewBox="0 0 20 20">
    <path fill="#E6E6E6" fill-rule="nonzero" d="M10 4C5.638 4 1.858 6.438 0 10c1.858 3.562 5.638 6 10 6s8.142-2.438 10-6c-1.858-3.562-5.638-6-10-6zm4.93 3.182A9.326 9.326 0 0 1 17.85 10a9.327 9.327 0 0 1-2.92 2.818A9.434 9.434 0 0 1 10 14.2a9.434 9.434 0 0 1-4.93-1.382A9.327 9.327 0 0 1 2.15 10 9.325 9.325 0 0 1 5.3 7.045 4.617 4.617 0 0 0 5 8.688c0 2.65 2.239 4.8 5 4.8s5-2.15 5-4.8c0-.578-.106-1.13-.3-1.643.077.045.154.09.23.137zM11 8.087c0 .995-.84 1.8-1.875 1.8-1.036 0-1.875-.805-1.875-1.8 0-.994.84-1.8 1.875-1.8 1.036 0 1.875.806 1.875 1.8z"/>
</svg>
