<svg xmlns="http://www.w3.org/2000/svg" width="20" height="20" viewBox="0 0 20 20">
    <path fill="#E6E6E6" fill-rule="evenodd" d="M8.138 14.017c.61.121 1.233.183 1.862.183 1.75 0 3.454-.478 4.93-1.382A9.327 9.327 0 0 0 17.85 10a9.326 9.326 0 0 0-3.15-2.955c.194.512.3 1.065.3 1.643 0 2.65-2.239 4.8-5 4.8a5.21 5.21 0 0 1-1.197-.139l-.665.668zm-3.075-1.203l1.08-1.072A4.666 4.666 0 0 1 5 8.687c0-.577.106-1.13.3-1.642A9.325 9.325 0 0 0 2.15 10a9.327 9.327 0 0 0 2.913 2.814zM8.23 9.67l2.512-2.495a1.89 1.89 0 0 0-1.617-.888c-1.036 0-1.875.806-1.875 1.8 0 .683.396 1.278.98 1.583zm5.158-5.16l3.9-3.9 2.12 2.122-3.14 3.141A11.126 11.126 0 0 1 20 10c-1.858 3.562-5.638 6-10 6a11.43 11.43 0 0 1-3.359-.5l-4.203 4.203L.317 17.58l3.439-3.439A11.127 11.127 0 0 1 0 10c1.858-3.562 5.638-6 10-6 1.18 0 2.319.179 3.388.51z"/>
</svg>
