<svg xmlns="http://www.w3.org/2000/svg" width="30" height="30" viewBox="0 0 30 30">
    <g fill="#FFF" fill-rule="nonzero">
        <path d="M9.194 11.652h4.494c.388 0 .702-.31.702-.693a.698.698 0 0 0-.702-.694H9.194a.698.698 0 0 0-.702.694c0 .383.314.693.702.693zM17.902 14.773H9.194a.698.698 0 0 0-.702.693c0 .383.314.694.702.694h8.708c.387 0 .702-.31.702-.694a.698.698 0 0 0-.702-.693zM17.902 19.28H9.194a.698.698 0 0 0-.702.694c0 .383.314.694.702.694h8.708c.387 0 .702-.31.702-.694a.698.698 0 0 0-.702-.693z"/>
        <path d="M27.943 24.482V2.636C28.002 1.24 26.903.06 25.49.002a2.59 2.59 0 0 0-.179-.001H10.212c-1.545 0-2.984 1.11-2.984 2.635v1.18H5.999c-1.606.034-2.91 1.292-2.984 2.877v21.88c.045.424.312.792.702.972.404.176.875.094 1.194-.208l2.141-1.908 2.563 2.254c.192.176.442.274.703.278.26-.01.507-.108.702-.278l2.528-2.254 2.528 2.254c.4.354 1.004.354 1.404 0l2.563-2.254 2.107 1.908a.85.85 0 0 0 1.053.208c.35-.198.554-.575.527-.971V23.65l.421-.312 2.142 1.907c.198.187.464.287.737.277a.638.638 0 0 0 .351-.069c.37-.181.591-.565.562-.97zm-5.617 3.329l-1.65-1.595a.992.992 0 0 0-1.37-.035l-2.563 2.254-2.493-2.254a1.135 1.135 0 0 0-1.404 0l-2.528 2.254-2.563-2.254a1.17 1.17 0 0 0-1.51.035L4.419 27.81V6.693c.07-.82.748-1.459 1.58-1.49h15.098c.772 0 1.229.728 1.229 1.49v21.118zm4.213-25.175V23.72l-1.756-1.595c-.28-.277-.35-.347-1.053-.243V6.693c0-1.525-1.088-2.878-2.633-2.878H8.632V2.636c0-.763.808-1.248 1.58-1.248H25.31a1.154 1.154 0 0 1 1.229 1.248z"/>
    </g>
</svg>
