<svg xmlns="http://www.w3.org/2000/svg" width="20" height="20" viewBox="0 0 20 20">
    <path fill="#002AFF" fill-rule="nonzero" d="M17.692 13.59V9.783c0-3.352-2.316-6.173-5.435-6.957a1.94 1.94 0 0 0 .205-.87 1.961 1.961 0 0 0-3.924 0c0 .313.074.608.205.87-3.12.783-5.435 3.605-5.435 6.957v3.807A1.96 1.96 0 0 0 2 15.435c0 1.079.88 1.956 1.962 1.956h3.335a3.273 3.273 0 0 0 6.406 0h3.335A1.961 1.961 0 0 0 19 15.435a1.96 1.96 0 0 0-1.308-1.845zM10.5 1.304a.654.654 0 1 1-.654.652c0-.36.293-.652.654-.652zm0 17.392c-.852 0-1.58-.55-1.85-1.309h3.7a1.968 1.968 0 0 1-1.85 1.309zm6.538-2.609H3.962a.654.654 0 0 1-.654-.652c0-.36.293-.652.654-.652h1.307a.653.653 0 1 0 0-1.305h-.654V9.783c0-3.237 2.64-5.87 5.885-5.87 3.245 0 5.885 2.633 5.885 5.87v3.695h-.655a.653.653 0 1 0 0 1.305h1.308c.361 0 .654.292.654.652 0 .36-.293.652-.654.652z"/>
</svg>
