<svg xmlns="http://www.w3.org/2000/svg" width="22" height="24" viewBox="0 0 22 24">
    <path fill="#D9D9D9" fill-rule="nonzero" d="M21.108 12.58c-.492 0-.892.383-.892.856 0 4.88-4.134 8.85-9.216 8.85-5.082 0-9.216-3.97-9.216-8.85 0-4.591 3.66-8.375 8.324-8.808V6.6c0 .306.17.589.446.742a.922.922 0 0 0 .892 0l5.18-2.872a.85.85 0 0 0 .445-.742.85.85 0 0 0-.446-.741L11.445.115a.923.923 0 0 0-.891 0 .851.851 0 0 0-.446.742v2.052C4.458 3.347 0 7.9 0 13.436 0 19.26 4.935 24 11 24s11-4.74 11-10.564c0-.473-.4-.857-.892-.857z"/>
</svg>
