<svg xmlns="http://www.w3.org/2000/svg" width="16" height="16" viewBox="0 0 16 16">
    <path fill-rule="nonzero" d="M14.25 8.727c.415 0 .75.326.75.727 0 2.006-1.682 3.637-3.75 3.637h-6v2.182c0 .279-.166.534-.425.655a.775.775 0 0 1-.794-.087l-3.75-2.91A.72.72 0 0 1 0 12.365a.72.72 0 0 1 .281-.568l3.75-2.91a.771.771 0 0 1 .795-.087c.258.12.424.376.424.655v2.182h6c1.24 0 2.25-.979 2.25-2.182 0-.401.335-.727.75-.727zM.75 7.273A.739.739 0 0 1 0 6.545C0 4.54 1.682 2.91 3.75 2.91h6V.727c0-.28.166-.535.425-.655a.772.772 0 0 1 .794.087l3.75 2.91a.72.72 0 0 1 .281.567.72.72 0 0 1-.281.568l-3.75 2.91a.768.768 0 0 1-.794.087.727.727 0 0 1-.425-.656V4.363h-6c-1.24 0-2.25.98-2.25 2.182a.739.739 0 0 1-.75.728z"/>
</svg>
