<svg xmlns="http://www.w3.org/2000/svg" width="30" height="30" viewBox="0 0 30 30">
    <g fill="#FFF" fill-rule="nonzero">
        <path d="M23.978 21.618c-.658-.296-1.405-.63-2.255-1.029l-.069.012c-.284.284-.599.552-.937.797l-.086.063.096.046c1.067.509 1.992.926 2.774 1.277 2.901 1.299 3.268 2.172 3.268 2.88 0 .485-.467 1.098-1.047 1.098H4.277c-.58 0-1.046-.613-1.046-1.099 0-.707.367-1.58 3.268-2.879a126.49 126.49 0 0 0 2.774-1.277l.096-.046-.087-.063a8.06 8.06 0 0 1-.937-.797l-.03-.03c-.888.417-1.635.751-2.293 1.047C3.095 22.928 2 24.038 2 25.664 2 26.887 3.085 28 4.277 28h21.446C26.915 28 28 26.887 28 25.664c0-1.625-1.095-2.735-4.022-4.046z"/>
        <path d="M6.333 9.429h1.238A7.433 7.433 0 0 1 15 2a7.433 7.433 0 0 1 7.429 7.429h1.238c.684 0 1.238.555 1.238 1.238v3.714c0 .683-.554 1.238-1.238 1.238h-1.238c-.366 0-.686-.187-.913-.438-.037.053-.07.107-.115.158-.858 3.388-3.402 5.851-6.401 5.851-3.071 0-5.661-2.586-6.455-6.1-.225.3-.568.529-.974.529H6.333a1.239 1.239 0 0 1-1.238-1.238v-3.714c0-.683.554-1.238 1.238-1.238zm16.096 6.19h1.238v-6.19h-1.238v6.19zM15 19.962c2.003 0 3.754-1.41 4.71-3.504-1.468.638-3.391.994-4.71.994a.618.618 0 1 1 0-1.237c2.177 0 4.498-.868 5.277-1.488a9.12 9.12 0 0 0 .202-1.896c0-3.931-2.458-7.13-5.479-7.13S9.52 8.9 9.52 12.831c0 3.932 2.459 7.13 5.48 7.13zM8.824 9.564C9.848 6.574 12.23 4.472 15 4.472s5.152 2.102 6.176 5.092c0-.05.014-.097.014-.147 0-3.408-2.777-6.18-6.19-6.18-3.413 0-6.19 2.772-6.19 6.18 0 .05.013.097.014.147zm-2.49 4.817H7.57V9.429H6.333v4.952z"/>
    </g>
</svg>
