<svg xmlns="http://www.w3.org/2000/svg" width="12" height="18" viewBox="0 0 12 18">
    <path fill="#8F00FF" fill-rule="evenodd" d="M3.32 3.365h1.429V1h1.428v2.422c.874.11 1.58.377 2.12.805.726.574 1.088 1.37 1.088 2.387 0 .658-.14 1.227-.423 1.706a2.843 2.843 0 0 1-1.138 1.094c.675.204 1.207.572 1.595 1.104.387.533.581 1.206.581 2.02 0 1.089-.38 1.926-1.138 2.513-.645.498-1.54.785-2.685.86V18H4.75v-2.07H3.32V18H1.891v-2.07H0V3.365h1.891V1H3.32v2.365zM1.661 4.82V8.84h3.405c.853 0 1.51-.17 1.969-.512.46-.34.69-.84.69-1.498 0-.659-.23-1.158-.69-1.5-.46-.34-1.116-.51-1.969-.51H1.661zm5.947 9.155c.476-.335.714-.862.714-1.58 0-1.4-.947-2.1-2.84-2.1h-3.82v4.182h3.82c.941 0 1.65-.167 2.126-.502z"/>
</svg>
