<svg xmlns="http://www.w3.org/2000/svg" width="12" height="18" viewBox="0 0 12 18">
    <path fill="#8F00FF" fill-rule="evenodd" d="M8.006 13.987c-.662.624-1.622.987-2.88 1.09V17H4.058v-1.923a7.992 7.992 0 0 1-2.313-.468c-.73-.267-1.31-.605-1.745-1.013l.618-1.328c.4.375.907.684 1.52.928a6.31 6.31 0 0 0 1.92.434V9.68c-.78-.192-1.428-.402-1.946-.629A3.357 3.357 0 0 1 .81 8.047C.46 7.604.284 7.026.284 6.31c0-.897.32-1.657.96-2.281.64-.624 1.578-.987 2.814-1.09V1h1.068v1.923a7.18 7.18 0 0 1 1.845.307c.596.181 1.11.425 1.545.732l-.551 1.361c-.902-.578-1.848-.896-2.839-.953v3.966c.813.204 1.48.417 2.004.638.523.222.966.55 1.327.988.362.437.543 1.018.543 1.744 0 .897-.331 1.657-.994 2.281zM2.471 7.383c.368.272.896.5 1.587.68V4.388c-.713.091-1.247.304-1.603.639-.357.334-.535.74-.535 1.217 0 .487.184.868.551 1.14zm4.333 5.643c.373-.324.56-.73.56-1.217 0-.5-.192-.883-.576-1.15-.384-.266-.938-.502-1.662-.706v3.66c.746-.068 1.305-.264 1.678-.587z"/>
</svg>
