<svg xmlns="http://www.w3.org/2000/svg" width="12" height="18" viewBox="0 0 12 18">
    <path fill="#8F00FF" fill-rule="evenodd" d="M10.96 12.859L12 14.003a4.944 4.944 0 0 1-1.884 1.489A5.864 5.864 0 0 1 7.664 16a5.85 5.85 0 0 1-2.614-.59 5.726 5.726 0 0 1-2.03-1.661 6.499 6.499 0 0 1-1.169-2.488H0v-1.017h1.689a11.484 11.484 0 0 1-.033-.744c0-.182.011-.43.033-.744H0V7.739h1.851a6.499 6.499 0 0 1 1.17-2.488 5.726 5.726 0 0 1 2.03-1.66A5.85 5.85 0 0 1 7.663 3c.899 0 1.719.17 2.46.508.742.34 1.367.83 1.876 1.471l-1.04 1.144c-.854-1.005-1.926-1.507-3.214-1.507-.986 0-1.852.284-2.599.853-.746.57-1.271 1.326-1.575 2.27H8.72v1.017H3.345a5.594 5.594 0 0 0 0 1.489H8.72v1.016H3.572c.304.944.829 1.7 1.575 2.27.747.569 1.613.853 2.599.853 1.277 0 2.349-.508 3.215-1.525z"/>
</svg>
