<svg xmlns="http://www.w3.org/2000/svg" width="16" height="16" viewBox="0 0 16 16">
    <g fill="#BFBFBF" fill-rule="nonzero">
        <path d="M15.484 0H.53a.499.499 0 0 0-.498.498v14.909c0 .274.224.593.498.593h14.954c.275 0 .498-.319.498-.593V.498A.499.499 0 0 0 15.484 0zM15 15H1V3h14v12z"/>
        <path d="M3.25 7.005h9.494a.25.25 0 0 0 .249-.25V5.25a.25.25 0 0 0-.25-.249H3.25A.25.25 0 0 0 3 5.25v1.506c0 .137.112.25.25.25zM3.25 13h4.535a.25.25 0 0 0 .25-.249V8.25A.25.25 0 0 0 7.784 8H3.249A.25.25 0 0 0 3 8.25v4.501c0 .138.112.25.25.25zM12.738 8H9.25A.25.25 0 0 0 9 8.25v1.48c0 .137.112.25.25.25h3.488a.25.25 0 0 0 .25-.25V8.25a.25.25 0 0 0-.25-.25zM12.738 11H9.25a.25.25 0 0 0-.249.25v1.5c0 .137.112.249.25.249h3.488a.25.25 0 0 0 .25-.25v-1.5a.25.25 0 0 0-.25-.249z"/>
    </g>
</svg>
