<svg xmlns="http://www.w3.org/2000/svg" width="36" height="36" viewBox="0 0 36 36">
    <path fill="#FFF" fill-rule="nonzero" d="M21.75 7c-3.373 0-6.392 1.46-8.453 3.758-.307-.03-.607-.091-.922-.091C7.198 10.667 3 14.77 3 19.833S7.198 29 12.375 29h9.375C27.964 29 33 24.076 33 18S27.964 7 21.75 7zm-9.375 20.167c-4.136 0-7.5-3.29-7.5-7.334s3.364-7.333 7.5-7.333c.84 0 1.665.141 2.456.422.431.115.947.344 1.47.663l.049.028 5.899 3.61a.905.905 0 0 1 .296 1.263.949.949 0 0 1-1.294.291l-5.855-3.584a.52.52 0 0 1-.055-.031 4.166 4.166 0 0 0-1.08-.495c-3.917-1.366-7.511 1.527-7.511 5.166 0 3.033 2.524 5.5 5.625 5.5.317 0 .63-.033.936-.082a10.464 10.464 0 0 0 1.61 1.472 7.65 7.65 0 0 1-2.546.444zm9.375 0a9.412 9.412 0 0 1-5.586-1.814 8.607 8.607 0 0 1-1.618-1.49 12.12 12.12 0 0 1-.048-.053l-2.849-3.395a.903.903 0 0 1 .132-1.291.951.951 0 0 1 1.32.128l2.793 3.33c.023.023.045.047.066.073.36.444.791.845 1.32 1.226a7.534 7.534 0 0 0 4.47 1.452c4.136 0 7.5-3.289 7.5-7.333 0-4.044-3.364-7.333-7.5-7.333a7.538 7.538 0 0 0-4.4 1.397l-.006-.004c-.03-.018-.06-.037-.09-.053a7.956 7.956 0 0 0-1.776-.803 9.367 9.367 0 0 1 6.272-2.37c5.17 0 9.375 4.111 9.375 9.166 0 5.055-4.206 9.167-9.375 9.167z"/>
</svg>
