<svg xmlns="http://www.w3.org/2000/svg" width="36" height="36" viewBox="0 0 36 36">
    <g fill="#FFF" fill-rule="nonzero">
        <path d="M7.608 17.992c0 5.726 4.658 10.385 10.384 10.385s10.385-4.659 10.385-10.385S23.718 7.608 17.992 7.608 7.608 12.266 7.608 17.992zm19.292 0c0 4.912-3.996 8.908-8.908 8.908-4.911 0-8.907-3.996-8.907-8.908 0-4.911 3.996-8.907 8.907-8.907 4.912 0 8.908 3.996 8.908 8.907z"/>
        <path d="M17.328 12.174v1.156a3.148 3.148 0 0 0-1.169.543c-.988.73-1.431 1.74-1.187 2.702.234.927 1.077 1.6 2.199 1.757 2.543.356 2.956.736 2.848 1.627-.058.474-.331.814-.811 1.01-.812.33-2.218.19-3.533-.867l-.925 1.151c.795.639 1.693 1.062 2.578 1.246v1.312h1.477v-1.234a3.66 3.66 0 0 0 .959-.24c.971-.396 1.598-1.197 1.72-2.2.14-1.137-.307-2.018-1.29-2.546-.762-.409-1.768-.575-2.818-.722-.524-.073-.887-.319-.973-.657-.091-.36.145-.79.633-1.15.516-.382 1.125-.438 1.86-.172a4.093 4.093 0 0 1 1.089.606l.473-.567.475-.566a5.45 5.45 0 0 0-1.486-.844 4.473 4.473 0 0 0-.642-.188v-1.157h-1.477z"/>
        <path d="M17.992 3.477c3.177 0 6.198 1.015 8.694 2.89h-1.942v1.476h4.753V3.091H28.02v2.442A15.875 15.875 0 0 0 17.992 2C9.174 2 2 9.174 2 17.992h1.477c0-8.004 6.511-14.515 14.515-14.515zM32.508 17.992c0 8.004-6.512 14.516-14.516 14.516-3.086 0-6.035-.962-8.493-2.742h1.928V28.29H6.675v4.753h1.477V30.6a15.893 15.893 0 0 0 9.84 3.384c8.818 0 15.992-7.174 15.992-15.992h-1.476z"/>
    </g>
</svg>
