<svg xmlns="http://www.w3.org/2000/svg" width="36" height="36" viewBox="0 0 36 36">
    <path fill="#FFF" fill-rule="nonzero" d="M28.643 22.809c-.96-1.135-2.269-1.779-3.738-1.779h-2.736v-2.087a11.008 11.008 0 0 0 1.515-2.293c.781-.132 1.566-.936 1.974-2.084.498-1.404.275-2.664-.533-3.116.34-1.819-.16-3.991-1.347-5.628C22.458 4.002 20.419 3 18.03 3s-4.429 1.002-5.748 2.822c-1.183 1.632-1.687 3.796-1.354 5.612-.833.436-1.077 1.71-.573 3.132.422 1.186 1.193 1.982 1.996 2.09.42.841.868 1.68 1.58 2.409v1.965h-2.77c-1.469 0-2.812.644-3.772 1.779C6.498 23.865 6 25.282 6 26.766v2.848c0 .293.174.56.44.688C10.7 32.362 14.728 33 18.081 33c1.765 0 3.345-.177 4.673-.416 4.182-.755 6.778-2.245 6.888-2.308.238-.137.357-.39.357-.662v-2.849c0-1.483-.464-2.9-1.357-3.956zm-9.728 3.253c0 .29-.236.524-.528.524h-.775a.526.526 0 0 1-.527-.524v-.77c0-.29.236-.524.527-.524h.775c.292 0 .528.235.528.524v.77zm.495-2.585a2.057 2.057 0 0 0-.98-.224h-.793c-.355 0-.688.068-.98.224l-1.283-1.281a.798.798 0 0 0 .083-.363V20.47a4.33 4.33 0 0 0 2.542.849c.968 0 1.831-.353 2.645-.921v1.435c0 .1.05.205.085.293l-1.319 1.35zm-5.875-16.76c.723-.998 2.09-2.186 4.499-2.186 2.408 0 3.775 1.188 4.498 2.185 1.124 1.551 1.328 3.408 1.048 4.637-5.044 1.225-7.46-3.48-7.56-3.68a.77.77 0 0 0-1.452.212c-.005.033-.55 2.973-2.077 3.482-.285-1.227-.084-3.093 1.044-4.65zm-1.88 6.225c2.13.167 3.4-1.658 3.958-3.117.338.421.764.887 1.281 1.331 1.49 1.279 3.21 1.93 5.051 1.93.655 0 1.738-.082 2.42-.247.045.205.059.653-.142 1.218-.23.65-.565.978-.71 1.063a.776.776 0 0 0-.963.41c-.879 1.964-2.589 4.258-4.516 4.258-1.932 0-3.643-2.3-4.522-4.27a.77.77 0 0 0-.995-.4c-.146-.087-.478-.416-.707-1.061-.178-.5-.187-.89-.155-1.115zm-4.13 13.824c0-2.02 1.293-4.22 3.638-4.22h2.451l2.049 2.065a2.214 2.214 0 0 0-.104.655v.789c0 .575.242 1.094.625 1.467l-.683 3.811c-2.433-.254-5.128-.902-7.976-2.203v-2.364zm9.54 4.676l.589-3.34h.76l.589 3.343a24.81 24.81 0 0 1-1.937-.003zm11.41-2.29c-.814.418-3.028 1.395-6.076 1.936-.574.103-1.188.192-1.856.258l-.699-3.824a2.02 2.02 0 0 0 .596-1.467v-.788c0-.22-.005-.458-.07-.656l2.083-2.065h2.452c2.344 0 3.57 2.2 3.57 4.22v2.385z"/>
</svg>
