<svg xmlns="http://www.w3.org/2000/svg" width="36" height="36" viewBox="0 0 36 36">
    <g fill="#FFF" fill-rule="nonzero">
        <path d="M33.212 32.545H31.76v-2.981c1.234-.291 2.178-1.455 2.178-2.837 0-1.382-1.96-3.709-2.396-4.145a.788.788 0 0 0-1.089 0c-.362.436-2.322 2.763-2.322 4.145 0 1.382.943 2.473 2.177 2.837v2.981h-7.984V28.91c0-.436-.29-.727-.726-.727H14.34c-.436 0-.726.29-.726.727v3.636h-3.63V9.273h4.356c.435 0 .725-.291.725-.728V6.365h5.807v2.181c0 .437.29.728.726.728h4.355v21.09c0 .437.29.728.726.728s.726-.291.726-.727V8.545c0-.436-.29-.727-.726-.727h-4.355V5.636c0-.436-.29-.727-.726-.727h-2.903V2.727c0-.436-.29-.727-.726-.727s-.726.29-.726.727V4.91H14.34c-.436 0-.726.291-.726.727v2.182H9.259c-.436 0-.726.291-.726.727v24.728c0 .436.29.727.726.727h23.953c.435 0 .726-.291.726-.727 0-.437-.29-.728-.726-.728zm-15.969 0h-2.178v-2.909h2.178v2.91zm3.63 0h-2.178v-2.909h2.177v2.91zm8.71-5.818c0-.436.653-1.527 1.451-2.545.799.945 1.452 2.036 1.452 2.545 0 .8-.653 1.455-1.452 1.455a1.457 1.457 0 0 1-1.451-1.455z"/>
        <path d="M19.42 7.818h-2.903c-.435 0-.726.291-.726.727 0 .437.29.728.726.728h2.904c.435 0 .725-.291.725-.728 0-.436-.29-.727-.725-.727zM6.355 32.545H5.63v-2.981c1.234-.364 2.178-1.455 2.178-2.837 0-1.382-1.96-3.709-2.395-4.145a.788.788 0 0 0-1.09 0C3.96 23.018 2 25.345 2 26.727c0 1.382.944 2.473 2.178 2.837v2.981H2.726c-.436 0-.726.291-.726.728 0 .436.29.727.726.727h3.63c.435 0 .725-.29.725-.727s-.29-.728-.726-.728zm-2.903-5.818c0-.436.653-1.527 1.451-2.545.799.945 1.452 2.036 1.452 2.545 0 .8-.653 1.455-1.452 1.455a1.457 1.457 0 0 1-1.451-1.455zM23.318 20.491a.718.718 0 0 0-.723-.713h-2.983c-.4 0-.723.32-.723.713v4.37c0 .394.324.714.723.714h2.983c.4 0 .723-.32.723-.714v-4.37zm-2.983.714h1.537v2.943h-1.537v-2.943zM17.096 20.491a.718.718 0 0 0-.723-.713H13.39c-.4 0-.723.32-.723.713v4.37c0 .394.323.714.723.714h2.983c.4 0 .723-.32.723-.714v-4.37zm-2.983.714h1.537v2.943h-1.537v-2.943zM23.318 12.491a.718.718 0 0 0-.723-.713h-2.983c-.4 0-.723.32-.723.713v4.37c0 .394.324.714.723.714h2.983c.4 0 .723-.32.723-.714v-4.37zm-2.983.714h1.537v2.943h-1.537v-2.943zM17.096 12.491a.718.718 0 0 0-.723-.713H13.39c-.4 0-.723.32-.723.713v4.37c0 .394.323.714.723.714h2.983c.4 0 .723-.32.723-.714v-4.37zm-2.983.714h1.537v2.943h-1.537v-2.943z"/>
    </g>
</svg>
