<svg xmlns="http://www.w3.org/2000/svg" width="36" height="36" viewBox="0 0 36 36">
    <g fill="#FFF" fill-rule="nonzero">
        <path d="M34.364 19.677c-.491 0-.819.336-.819.839v10.903c0 .503-.327.838-.818.838H3.273c-.491 0-.818-.335-.818-.838V20.516c0-.503-.328-.839-.819-.839-.49 0-.818.336-.818.839v10.903c0 1.425 1.064 2.515 2.455 2.515h29.454c1.391 0 2.455-1.09 2.455-2.515V20.516c0-.503-.327-.839-.818-.839z"/>
        <path d="M33.545 7.936H2.455C1.064 7.936 0 9.026 0 10.452v5.368c0 1.174.818 2.18 1.882 2.432l12.845 2.935v2.684c0 .503.328.838.818.838h4.91c.49 0 .818-.335.818-.838v-2.684l12.845-2.935C35.182 18 36 16.994 36 15.819v-5.367c0-1.426-1.064-2.516-2.455-2.516zM19.636 23.032h-3.272v-3.355h3.272v3.355zm14.728-7.213c0 .42-.246.755-.655.84l-12.436 2.85v-.67c0-.504-.328-.839-.818-.839h-4.91c-.49 0-.818.335-.818.839v.67L2.291 16.66c-.41-.085-.655-.42-.655-.84v-5.367c0-.503.328-.839.819-.839h31.09c.491 0 .819.336.819.84v5.366zM22.09 2.066h-8.18c-1.392 0-2.455 1.09-2.455 2.515v.84c0 .502.327.838.818.838.49 0 .818-.336.818-.839v-.839c0-.503.327-.838.818-.838h8.182c.49 0 .818.335.818.838v.84c0 .502.327.838.818.838.491 0 .818-.336.818-.839v-.839c0-1.425-1.063-2.515-2.454-2.515z"/>
    </g>
</svg>
