<svg xmlns="http://www.w3.org/2000/svg" width="36" height="36" viewBox="0 0 36 36">
    <g fill="#FFF" fill-rule="nonzero">
        <path d="M15.58 27.483c-1.456 0-2.64 1.236-2.64 2.755 0 1.52 1.184 2.755 2.64 2.755 1.454 0 2.638-1.236 2.638-2.755s-1.184-2.755-2.639-2.755zm0 3.972c-.643 0-1.166-.546-1.166-1.217s.523-1.217 1.165-1.217c.643 0 1.165.546 1.165 1.217 0 .67-.522 1.217-1.165 1.217zM24.834 27.483c-1.455 0-2.639 1.236-2.639 2.755 0 1.52 1.184 2.755 2.639 2.755 1.455 0 2.638-1.236 2.638-2.755s-1.183-2.755-2.638-2.755zm0 3.972c-.643 0-1.165-.546-1.165-1.217s.522-1.217 1.165-1.217c.642 0 1.165.546 1.165 1.217 0 .67-.523 1.217-1.165 1.217zM25.483 12.979H14.928c-.407 0-.737.344-.737.769 0 .425.33.769.737.769h10.555c.407 0 .737-.344.737-.77 0-.424-.33-.768-.737-.768zM22.909 16.973h-5.407c-.406 0-.736.344-.736.769 0 .424.33.769.736.769h5.407c.407 0 .736-.345.736-.77 0-.424-.33-.768-.736-.768z"/>
        <path d="M32.668 9.552a1.444 1.444 0 0 0-1.142-.567H8.583l-.464-2.348a1.528 1.528 0 0 0-.856-1.1L4.03 4.07a.725.725 0 0 0-.969.399c-.162.39.01.843.382 1.012l3.233 1.465 3.564 18.065c.14.711.748 1.227 1.443 1.227H29.33c.407 0 .736-.344.736-.769 0-.425-.33-.769-.736-.769H11.683l-.433-2.197h18.216c.696 0 1.303-.517 1.443-1.228l2.06-10.442c.09-.455-.02-.922-.3-1.282zm-3.202 11.414h-18.52l-2.06-10.442h22.64l-2.06 10.442z"/>
    </g>
</svg>
