<svg xmlns="http://www.w3.org/2000/svg" width="36" height="36" viewBox="0 0 36 36">
    <g fill="#FFF" fill-rule="evenodd">
        <path fill-rule="nonzero" d="M30.25 0H5.75a.715.715 0 0 0-.714.717v34.566c0 .396.32.717.713.717H24.38c.19 0 .37-.076.504-.21l5.87-5.906a.72.72 0 0 0 .21-.507V.717A.715.715 0 0 0 30.25 0zm-5.159 33.553l-.003-3.464 3.443.004-3.44 3.46zm4.447-4.894l-5.162-.004h-.001a.71.71 0 0 0-.713.717l.005 5.194H6.462V1.434h23.076V28.66z"/>
        <path fill-rule="nonzero" d="M12.34 24.873c-1.792 0-3.25 1.467-3.25 3.27 0 1.804 1.458 3.271 3.25 3.271 1.793 0 3.251-1.467 3.251-3.27 0-1.804-1.458-3.27-3.25-3.27zm0 5.107a1.833 1.833 0 0 1-1.825-1.836c0-1.013.819-1.836 1.825-1.836 1.007 0 1.826.823 1.826 1.836a1.833 1.833 0 0 1-1.826 1.836zM21.636 27.542h-3.921a.715.715 0 0 0-.713.717c0 .396.32.717.713.717h3.92a.715.715 0 0 0 .713-.717.715.715 0 0 0-.712-.717zM26.305 13.052c.393 0 .712.32.712.717 0 .396-.319.717-.712.717H9.695a.715.715 0 0 1-.713-.717c0-.396.32-.717.713-.717h16.61zm0 2.438c.393 0 .713.321.712.717 0 .396-.319.717-.712.717H9.695a.715.715 0 0 1-.713-.717c0-.396.32-.717.713-.717h16.61zm0 2.653c.393 0 .713.321.712.718 0 .396-.319.717-.712.717H9.695a.715.715 0 0 1-.713-.717c0-.397.32-.718.713-.718h16.61zm0 2.439c.393 0 .713.32.713.717 0 .396-.32.717-.713.717h-.392a.715.715 0 0 1-.713-.717c0-.396.319-.717.713-.717h.392zm-2.887 0c.393 0 .712.32.712.717 0 .396-.319.717-.712.717H9.695a.715.715 0 0 1-.713-.717c0-.396.32-.717.713-.717h13.723z"/>
        <path d="M12.75 5.966V10H11.54V5.966H10V5h4.29v.966h-1.54zM19.038 10l-.505-1.08h-2.277L15.75 10h-1.29l2.347-5h1.174l2.346 5h-1.29zm-1.64-3.512l-.683 1.452h1.36l-.676-1.452zM24.4 5h1.461l-1.694 2.41L26 10h-1.476l-1.158-1.645L22.216 10h-1.461l1.826-2.56L20.879 5h1.453l1.034 1.48L24.399 5z"/>
    </g>
</svg>
