<svg xmlns="http://www.w3.org/2000/svg" width="30" height="30" viewBox="0 0 30 30">
    <g fill="#FFF" fill-rule="nonzero">
        <path d="M14.371 9.538v1.085c-.39.09-.758.26-1.096.51-.927.683-1.343 1.63-1.114 2.534.22.868 1.01 1.5 2.063 1.647 2.385.334 2.773.69 2.67 1.526-.054.445-.31.764-.76.947-.76.31-2.08.178-3.313-.813l-.868 1.08a5.79 5.79 0 0 0 2.418 1.169v1.23h1.385v-1.158c.314-.036.617-.11.9-.225.91-.37 1.5-1.122 1.614-2.062.13-1.068-.288-1.893-1.21-2.388-.715-.384-1.659-.54-2.644-.678-.491-.069-.832-.3-.912-.616-.086-.338.136-.742.593-1.08.485-.357 1.056-.41 1.745-.16a3.839 3.839 0 0 1 1.021.568l.444-.532.445-.53a5.112 5.112 0 0 0-1.393-.793 4.195 4.195 0 0 0-.603-.176V9.538h-1.385z"/>
        <path d="M14.993 1.385c2.978 0 5.81.951 8.15 2.709h-1.82v1.384h4.455V1.023h-1.385v2.29A14.883 14.883 0 0 0 14.993 0C6.726 0 0 6.726 0 14.993h1.385c0-7.504 6.104-13.608 13.608-13.608zM28.6 14.993c0 7.503-6.104 13.608-13.607 13.608-2.894 0-5.658-.902-7.962-2.57h1.807v-1.385H4.383v4.456h1.385v-2.29a14.9 14.9 0 0 0 9.225 3.173c8.267 0 14.992-6.725 14.992-14.992h-1.384z"/>
    </g>
</svg>
