<svg xmlns="http://www.w3.org/2000/svg" width="60" height="60" viewBox="0 0 60 60">
    <g fill="none" fill-rule="evenodd">
        <path fill="#8F00FF" d="M-340-41h840V99h-840z"/>
        <g fill="#FFF">
            <path fill-rule="nonzero" d="M46.667 51H35v2.917h11.667v2.435L50.58 52.5l-3.913-3.853V51zm-1.512-5.916a.76.76 0 0 1 .893.148l6.667 6.563c.18.178.285.435.285.705 0 .27-.103.527-.285.705l-6.667 6.562a.76.76 0 0 1-.893.149c-.297-.152-.488-.486-.488-.854v-3.145H33.833c-.46 0-.833-.42-.833-.938v-5.041c0-.518.373-.938.833-.938h10.834v-3.063c0-.367.19-.701.488-.853zM26 51v3h1v-3h-1zm-1-2h3a1 1 0 0 1 1 1v5a1 1 0 0 1-1 1h-3a1 1 0 0 1-1-1v-5a1 1 0 0 1 1-1zM17 51v3h1v-3h-1zm-1-2h3a1 1 0 0 1 1 1v5a1 1 0 0 1-1 1h-3a1 1 0 0 1-1-1v-5a1 1 0 0 1 1-1zM8 51v3h1v-3H8zm-1-2h3a1 1 0 0 1 1 1v5a1 1 0 0 1-1 1H7a1 1 0 0 1-1-1v-5a1 1 0 0 1 1-1z"/>
            <path d="M41 6v2h4V6h11a3 3 0 0 1 3 3v18a3 3 0 0 1-3 3h-2v2a3 3 0 0 1-3 3h-2v3a3 3 0 0 1-3 3H4a3 3 0 0 1-3-3V19a3 3 0 0 1 3-3h2v-2a3 3 0 0 1 3-3h2V9a3 3 0 0 1 3-3h27zm13 22h2a1 1 0 0 0 1-1V9a1 1 0 0 0-1-1H14a1 1 0 0 0-1 1v2h38a3 3 0 0 1 3 3v14zm-5 5h2a1 1 0 0 0 1-1V14a1 1 0 0 0-1-1H9a1 1 0 0 0-1 1v2h38a3 3 0 0 1 3 3v14zM4 18a1 1 0 0 0-1 1v19a1 1 0 0 0 1 1h42a1 1 0 0 0 1-1V19a1 1 0 0 0-1-1H4zm10-7v2h4v-2h-4zm38 4v4h2v-4h-2z"/>
            <path fill-rule="nonzero" d="M7 31.406c1.052.268 1.84.649 2.41 1.218.57.571.959 1.374 1.242 2.458h28.633c.257-1.076.643-1.886 1.235-2.469.592-.583 1.419-.967 2.53-1.23V25.66c-1.065-.293-1.845-.675-2.398-1.225-.557-.553-.95-1.344-1.264-2.436H10.652c-.28 1.058-.67 1.853-1.237 2.426C8.846 25 8.054 25.395 7 25.68v5.725zm-2-7.36c1.546-.231 2.545-.574 2.994-1.028.45-.454.789-1.46 1.016-3.018h31.969c.3 1.592.66 2.598 1.083 3.018.422.42 1.418.763 2.988 1.029v9.022c-1.627.196-2.67.519-3.126.968-.456.45-.771 1.465-.945 3.045H9.009c-.236-1.589-.574-2.604-1.015-3.045-.44-.44-1.438-.763-2.994-.968v-9.022z"/>
            <path d="M2 0h2v2H2V0zm0 4h2v2H2V4zm2-2h2v2H4V2zM0 2h2v2H0V2zM56 36h2v2h-2v-2zm0 4h2v2h-2v-2zm2-2h2v2h-2v-2zm-4 0h2v2h-2v-2z"/>
            <path fill-rule="nonzero" d="M25 31c1.049 0 2-1.07 2-2.5s-.951-2.5-2-2.5-2 1.07-2 2.5.951 2.5 2 2.5zm0 2c-2.21 0-4-2.015-4-4.5s1.79-4.5 4-4.5 4 2.015 4 4.5-1.79 4.5-4 4.5z"/>
        </g>
    </g>
</svg>
