<svg xmlns="http://www.w3.org/2000/svg" width="60" height="60" viewBox="0 0 60 60">
    <g fill="none" fill-rule="evenodd">
        <path fill="#8F00FF" d="M-240-41h840V99h-840z"/>
        <g fill="#FFF">
            <path d="M0 29V9.8C0 7.701 1.679 6 3.75 6h42.5C48.321 6 50 7.701 50 9.8V16h6.25c2.071 0 3.75 1.701 3.75 3.8v30.4c0 2.099-1.679 3.8-3.75 3.8h-42.5C11.679 54 10 52.299 10 50.2V44H3.75C1.679 44 0 42.299 0 40.2V33h2v-4H0zm48-13V9.8c0-1-.79-1.8-1.75-1.8H3.75C2.79 8 2 8.8 2 9.8v30.4c0 1 .79 1.8 1.75 1.8H10V19.8c0-2.099 1.679-3.8 3.75-3.8H48zm-34.25 2c-.96 0-1.75.8-1.75 1.8v30.4c0 1 .79 1.8 1.75 1.8h42.5c.96 0 1.75-.8 1.75-1.8V19.8c0-1-.79-1.8-1.75-1.8h-42.5zM19 16v2h4v-2h-4z"/>
            <path d="M17 40h4a1 1 0 0 1 0 2h-4a1 1 0 0 1 0-2zm8 0h4a1 1 0 0 1 0 2h-4a1 1 0 0 1 0-2zM17 46h1a1 1 0 0 1 0 2h-1a1 1 0 0 1 0-2zm4 0h1a1 1 0 0 1 0 2h-1a1 1 0 0 1 0-2zm4 0h1a1 1 0 0 1 0 2h-1a1 1 0 0 1 0-2zm4 0a1 1 0 1 1 0 2 1 1 0 0 1 0-2z"/>
            <path fill-rule="nonzero" d="M48 46a4 4 0 1 0 0-8 4 4 0 0 0 0 8zm0 2a6 6 0 1 1 0-12 6 6 0 0 1 0 12z"/>
            <path fill-rule="nonzero" d="M41 46a4 4 0 1 0 0-8 4 4 0 0 0 0 8zm0 2a6 6 0 1 1 0-12 6 6 0 0 1 0 12z"/>
            <path d="M44.5 43.938A3.982 3.982 0 0 1 44 42c0-.703.181-1.364.5-1.938.319.574.5 1.235.5 1.938 0 .703-.181 1.364-.5 1.938z"/>
            <path fill-rule="nonzero" d="M18.004 35H29.996C31.1 35 32 34.06 32 32.906v-8.812C32 22.94 31.1 22 29.996 22H18.004C16.9 22 16 22.94 16 24.094v8.812C16 34.06 16.9 35 18.004 35zm3.33-5.571h-3.556V27.57h3.555v1.858zm-3.556 3.477v-1.62h3.555v1.62c0 .08.015.158.023.237h-3.352a.232.232 0 0 1-.226-.237zm12.444-3.477h-3.555v-1.62c0-.132.101-.238.226-.238h3.103c.077 0 .15-.014.226-.024v1.882zm-.226 3.714h-3.352c.008-.08.023-.156.023-.237v-1.62h3.555v1.62c0 .131-.101.237-.226.237zm0-9.286c.125 0 .226.106.226.237v1.383c0 .131-.101.237-.226.237h-3.103c-1.105 0-2.004.94-2.004 2.094v5.098c0 .131-.101.237-.227.237h-1.324a.232.232 0 0 1-.227-.237v-8.812c0-.131.101-.237.227-.237h6.658zm-11.992 0h3.352c-.008.08-.023.156-.023.237v1.62h-3.555v-1.62c0-.131.101-.237.226-.237z"/>
            <path d="M52 0h2v2h-2V0zm0 4h2v2h-2V4zm2-2h2v2h-2V2zm-4 0h2v2h-2V2zM2 54h2v2H2v-2zm0 4h2v2H2v-2zm2-2h2v2H4v-2zm-4 0h2v2H0v-2z"/>
        </g>
    </g>
</svg>
