<svg xmlns="http://www.w3.org/2000/svg" xmlns:xlink="http://www.w3.org/1999/xlink" width="60" height="60" viewBox="0 0 60 60">
    <defs>
        <rect id="b" width="1280" height="675" x="80" y="428" rx="4"/>
        <filter id="a" width="100.6%" height="101.2%" x="-.3%" y="-.3%" filterUnits="objectBoundingBox">
            <feOffset dy="2" in="SourceAlpha" result="shadowOffsetOuter1"/>
            <feGaussianBlur in="shadowOffsetOuter1" result="shadowBlurOuter1" stdDeviation="1"/>
            <feColorMatrix in="shadowBlurOuter1" values="0 0 0 0 0.882 0 0 0 0 0.8892 0 0 0 0 0.9 0 0 0 1 0"/>
        </filter>
    </defs>
    <g fill="none" fill-rule="evenodd">
        <g transform="translate(-160 -875)">
            <use fill="#000" filter="url(#a)" xlink:href="#b"/>
            <use fill="#FFF" xlink:href="#b"/>
        </g>
        <path fill="#EC5E85" fill-rule="nonzero" d="M52.667 51H41v2.917h11.667v2.435L56.58 52.5l-3.913-3.853V51zm-1.512-5.916a.76.76 0 0 1 .893.148l6.667 6.563c.18.178.285.435.285.705 0 .27-.103.527-.285.705l-6.667 6.562a.76.76 0 0 1-.893.149c-.297-.152-.488-.486-.488-.854v-3.145H39.833c-.46 0-.833-.42-.833-.938v-5.041c0-.518.373-.938.833-.938h10.834v-3.063c0-.367.19-.701.488-.853zM12 51v3h1v-3h-1zm-1-2h3a1 1 0 0 1 1 1v5a1 1 0 0 1-1 1h-3a1 1 0 0 1-1-1v-5a1 1 0 0 1 1-1zM3 51v3h1v-3H3zm-1-2h3a1 1 0 0 1 1 1v5a1 1 0 0 1-1 1H2a1 1 0 0 1-1-1v-5a1 1 0 0 1 1-1z"/>
        <path fill="#FFEDF2" d="M49 20v13h2a1 1 0 0 0 1-1v-4h.865l-.193-15.713H12.38L12 11a3 3 0 0 1 3-3h42a3 3 0 0 1 3 3v18a3 3 0 0 1-3 3h-1v4a3 3 0 0 1-3 3h-1v3a3 3 0 0 1-3 3H7a3 3 0 0 1-3-3V23a3 3 0 0 1 3-3h42zM25 33c2.21 0 4-2.015 4-4.5S27.21 24 25 24s-4 2.015-4 4.5 1.79 4.5 4 4.5z"/>
        <path fill="#EC5E85" d="M41 6v2h4V6h11a3 3 0 0 1 3 3v18a3 3 0 0 1-3 3h-2v2a3 3 0 0 1-3 3h-2v3a3 3 0 0 1-3 3H4a3 3 0 0 1-3-3V19a3 3 0 0 1 3-3h2v-2a3 3 0 0 1 3-3h2V9a3 3 0 0 1 3-3h27zm13 22h2a1 1 0 0 0 1-1V9a1 1 0 0 0-1-1H14a1 1 0 0 0-1 1v2h38a3 3 0 0 1 3 3v14zm-5 5h2a1 1 0 0 0 1-1V14a1 1 0 0 0-1-1H9a1 1 0 0 0-1 1v2h38a3 3 0 0 1 3 3v14zM4 18a1 1 0 0 0-1 1v19a1 1 0 0 0 1 1h42a1 1 0 0 0 1-1V19a1 1 0 0 0-1-1H4zm10-7v2h4v-2h-4zm38 4v4h2v-4h-2z"/>
        <path fill="#EC5E85" fill-rule="nonzero" d="M7 31.406c1.052.268 1.84.649 2.41 1.218.57.571.959 1.374 1.242 2.458h28.633c.257-1.076.643-1.886 1.235-2.469.592-.583 1.419-.967 2.53-1.23V25.66c-1.065-.293-1.845-.675-2.398-1.225-.557-.553-.95-1.344-1.264-2.436H10.652c-.28 1.058-.67 1.853-1.237 2.426C8.846 25 8.054 25.395 7 25.68v5.725zm-2-7.36c1.546-.231 2.545-.574 2.994-1.028.45-.454.789-1.46 1.016-3.018h31.969c.3 1.592.66 2.598 1.083 3.018.422.42 1.418.763 2.988 1.029v9.022c-1.627.196-2.67.519-3.126.968-.456.45-.771 1.465-.945 3.045H9.009c-.236-1.589-.574-2.604-1.015-3.045-.44-.44-1.438-.763-2.994-.968v-9.022z"/>
        <path fill="#EC5E85" fill-rule="nonzero" d="M25 31c1.049 0 2-1.07 2-2.5s-.951-2.5-2-2.5-2 1.07-2 2.5.951 2.5 2 2.5zm0 2c-2.21 0-4-2.015-4-4.5s1.79-4.5 4-4.5 4 2.015 4 4.5-1.79 4.5-4 4.5zM29.301 52.256a.353.353 0 0 1 0-.512l5.48-5.48a.79.79 0 0 0 .219-.51.79.79 0 0 0-.22-.512l-1.022-1.023a.79.79 0 0 0-.511-.219.663.663 0 0 0-.512.22l-5.48 5.479a.353.353 0 0 1-.51 0l-5.48-5.48a.79.79 0 0 0-.512-.219.79.79 0 0 0-.511.22l-1.023 1.022a.79.79 0 0 0-.219.511.79.79 0 0 0 .22.512l5.479 5.48a.353.353 0 0 1 0 .51l-5.48 5.48a.79.79 0 0 0-.219.512.79.79 0 0 0 .22.511l1.022 1.023a.79.79 0 0 0 .511.219.79.79 0 0 0 .512-.22l5.48-5.479a.353.353 0 0 1 .51 0l5.48 5.48a.79.79 0 0 0 .512.219.79.79 0 0 0 .511-.22l1.023-1.022a.79.79 0 0 0 .219-.511.79.79 0 0 0-.22-.512l-5.479-5.48z"/>
    </g>
</svg>
