<svg xmlns="http://www.w3.org/2000/svg" width="60" height="60" viewBox="0 0 60 60">
    <g fill="none" fill-rule="evenodd">
        <path fill="#8F00FF" d="M-540-41h840V99h-840z"/>
        <g fill="#FFF">
            <path fill-rule="nonzero" d="M37 58H15a3 3 0 0 1-3-3V18h2v-4h-2V5a3 3 0 0 1 3-3h30a3 3 0 0 1 3 3v50a3 3 0 0 1-3 3h-4v-2h-4v2zM15 4a1 1 0 0 0-1 1v50a1 1 0 0 0 1 1h30a1 1 0 0 0 1-1V5a1 1 0 0 0-1-1H15z"/>
            <path d="M2 5h2v2H2V5zm0 4h2v2H2V9zm2-2h2v2H4V7zM0 7h2v2H0V7zM5 54h2v2H5v-2zm0 4h2v2H5v-2zm2-2h2v2H7v-2zm-4 0h2v2H3v-2zM56 32h2v2h-2v-2zm0 4h2v2h-2v-2zm2-2h2v2h-2v-2zm-4 0h2v2h-2v-2zM34.83 38.16c-.781.801-1.913 1.287-3.395 1.457V42H29.82v-2.362c-.97-.07-1.889-.262-2.755-.574-.866-.312-1.554-.71-2.066-1.192l.886-2.149c.485.426 1.075.784 1.77 1.075.696.29 1.417.472 2.165.542v-4.255c-.931-.241-1.709-.507-2.332-.798a4.091 4.091 0 0 1-1.564-1.276c-.42-.56-.63-1.302-.63-2.224 0-1.149.387-2.127 1.161-2.936.774-.808 1.896-1.29 3.365-1.447V22h1.614v2.362a8.59 8.59 0 0 1 2.154.404 6.834 6.834 0 0 1 1.84.894l-.806 2.149a7.776 7.776 0 0 0-3.188-1.15v4.298c.944.242 1.728.504 2.351.788a4.078 4.078 0 0 1 1.574 1.266c.427.56.64 1.301.64 2.223 0 1.149-.39 2.124-1.17 2.926zm-6.485-8.373c.341.284.833.525 1.476.724v-3.788c-.669.114-1.167.34-1.495.681a1.74 1.74 0 0 0-.492 1.256c0 .468.17.844.511 1.127zm4.634 6.851c.335-.326.502-.73.502-1.212 0-.483-.177-.87-.531-1.16-.354-.29-.86-.536-1.515-.734v3.766c.695-.114 1.21-.333 1.544-.66zM18 46h2v2h-2v-2zm6 0h2v2h-2v-2zm-6-6h2v2h-2v-2zm22-24h2v2h-2v-2zm0 6h2v2h-2v-2zm-5-6h2v2h-2v-2zm-21-6h32v2H14v-2zm14-4h4a1 1 0 0 1 0 2h-4a1 1 0 0 1 0-2zM14 52h32v2H14v-2z"/>
        </g>
    </g>
</svg>
