<svg xmlns="http://www.w3.org/2000/svg" width="60" height="60" viewBox="0 0 60 60">
    <g fill="none" fill-rule="evenodd">
        <path fill="#8F00FF" d="M-740-40h840v140h-840z"/>
        <g fill="#FFF">
            <path fill-rule="nonzero" d="M26 52v-2h21.32c.937 0 1.691-.99 1.691-1.774 0-1.144-.592-2.554-5.279-4.652a206.456 206.456 0 0 1-4.48-2.063l-.156-.074.14-.101c.545-.397 1.054-.83 1.513-1.287l.111-.02c1.373.645 2.58 1.184 3.643 1.662C49.23 43.808 51 45.6 51 48.226 51 50.201 49.247 52 47.321 52H26zm-4 0h-9.321C10.753 52 9 50.201 9 48.226c0-2.625 1.769-4.418 6.497-6.535 1.063-.478 2.269-1.018 3.704-1.691l.049.049c.46.456.969.89 1.513 1.287l.14.1-.155.075a204.329 204.329 0 0 1-4.48 2.063c-4.687 2.098-5.28 3.508-5.28 4.652 0 .785.755 1.774 1.69 1.774H22v2zM16 22h2c0-6.617 5.373-12 12-12s12 5.383 12 12h2c1.105 0 2 .897 2 2v6c0 1.103-.895 2-2 2h-2c-.59 0-1.107-.302-1.474-.708-.06.086-.115.173-.187.256C38.955 37.02 34.844 41 30 41c-4.961 0-9.145-4.179-10.427-9.856-.364.486-.918.856-1.573.856h-2c-1.105 0-2-.897-2-2v-6a2 2 0 0 1 2-2zm26 10h2V22h-2v10zm-12 7.015c3.235 0 6.063-2.278 7.607-5.66-2.37 1.03-5.476 1.605-7.607 1.605a.999.999 0 1 1 0-1.997c3.516 0 7.265-1.403 8.524-2.404.207-.977.327-2 .327-3.062 0-6.351-3.971-11.518-8.851-11.518-4.88 0-8.851 5.167-8.851 11.518 0 6.351 3.971 11.518 8.851 11.518zM20.024 22.22c1.653-4.83 5.502-8.225 9.976-8.225 4.474 0 8.323 3.395 9.976 8.225.002-.081.024-.157.024-.238 0-5.505-4.486-9.984-10-9.984s-10 4.479-10 9.984c0 .081.022.157.024.238zM16 30h2v-8h-2v8z"/>
            <path d="M56 0h2v2h-2V0zm0 4h2v2h-2V4zm2-2h2v2h-2V2zm-4 0h2v2h-2V2zM2 54h2v2H2v-2zm0 4h2v2H2v-2zm2-2h2v2H4v-2zm-4 0h2v2H0v-2z"/>
        </g>
    </g>
</svg>
