<svg xmlns="http://www.w3.org/2000/svg" width="60" height="60" viewBox="0 0 60 60">
    <g fill="none" fill-rule="evenodd">
        <path fill="#8F00FF" d="M-640-41h840V99h-840z"/>
        <g fill="#FFF">
            <path d="M47 22v-2H13v2H8a3 3 0 0 1-3-3v-8a3 3 0 0 1 3-3h1v2h4V8h39a3 3 0 0 1 3 3v4h-2v4h2a3 3 0 0 1-3 3h-5zM8 10a1 1 0 0 0-1 1v8a1 1 0 0 0 1 1h44a1 1 0 0 0 1-1v-8a1 1 0 0 0-1-1H8z"/>
            <path d="M23 20a1 1 0 1 1 0 2 1 1 0 0 1 0-2zM34 28h4a1 1 0 0 1 0 2h-4a1 1 0 0 1 0-2zM34 34h4a1 1 0 0 1 0 2h-4a1 1 0 0 1 0-2zM34 40h2a1 1 0 0 1 0 2h-2a1 1 0 0 1 0-2zM30 20a1 1 0 1 1 0 2 1 1 0 0 1 0-2zM37 20a1 1 0 1 1 0 2 1 1 0 0 1 0-2zM13 14h34a1 1 0 0 1 0 2H13a1 1 0 0 1 0-2z"/>
            <path fill-rule="nonzero" d="M17 16v32.978l.462-.412c1.405-1.253 3.598-1.253 5.003 0l.807.72.807-.72c1.405-1.253 3.599-1.253 5.003 0l.887.791 1.035-.866c1.412-1.18 3.544-1.15 4.916.075l.808.72.807-.72c1.405-1.253 3.599-1.253 5.003 0l.462.412V16H17zm28-2v36.49l-1.654 1.477-2.14-1.909c-.645-.576-1.693-.576-2.34 0l-2.138 1.909-2.14-1.909c-.63-.563-1.65-.578-2.3-.033L29.927 52l-2.176-1.942c-.646-.576-1.694-.576-2.34 0l-2.139 1.909-2.139-1.909c-.646-.576-1.694-.576-2.34 0l-2.139 1.909L15 50.49V14h30z"/>
            <path d="M29.042 39.928c-.639.64-1.564 1.03-2.777 1.166V43h-1.32v-1.89a8.592 8.592 0 0 1-2.254-.459c-.709-.25-1.272-.567-1.691-.953l.725-1.72c.397.341.88.628 1.449.86.568.233 1.159.378 1.77.434v-3.404c-.762-.193-1.397-.406-1.907-.638a3.333 3.333 0 0 1-1.28-1.021c-.344-.449-.515-1.042-.515-1.78 0-.918.316-1.701.95-2.348.633-.647 1.55-1.033 2.753-1.158V27h1.32v1.89a7.17 7.17 0 0 1 1.763.323c.574.181 1.076.42 1.505.715l-.66 1.719a6.455 6.455 0 0 0-2.608-.92v3.439c.773.193 1.414.403 1.924.63.51.227.939.564 1.288 1.013.349.448.523 1.04.523 1.778 0 .92-.32 1.7-.958 2.34zm-5.305-6.698c.28.227.682.42 1.208.579v-3.03c-.548.09-.956.272-1.224.544a1.376 1.376 0 0 0-.403 1.005c0 .374.14.675.419.902zm3.792 5.48c.273-.26.41-.584.41-.97a1.13 1.13 0 0 0-.435-.927c-.29-.233-.703-.429-1.24-.587v3.012c.57-.09.99-.266 1.265-.527zM53 47h2v2h-2v-2zm0 4h2v2h-2v-2zm2-2h2v2h-2v-2zm-4 0h2v2h-2v-2zM2 0h2v2H2V0zm0 4h2v2H2V4zm2-2h2v2H4V2zM0 2h2v2H0V2z"/>
        </g>
    </g>
</svg>
